<svg xmlns="http://www.w3.org/2000/svg" xmlns:xlink="http://www.w3.org/1999/xlink" version="1.1" x="0px" y="0px" viewBox="0 0 98 122.5" style="enable-background:new 0 0 98 98;" xml:space="preserve"><path d="M68.576,11.052c-8.347-4.922-22.852-5.05-31.161-2.082c-7.713,2.756-12.324,7.612-14.51,15.283  c-2.567,9.01-2.094,11.006-1.209,12.679c0.253,0.478,0.405,0.766-0.012,2.414c-0.407,1.606-1.577,3.11-2.816,4.703  c-1.858,2.388-3.779,4.857-3.265,8.009c0.055,0.337,0.235,0.641,0.504,0.851c0.657,0.512,1.575,0.937,2.546,1.387  c0.43,0.199,0.87,0.403,1.253,0.601c0.053,0.861-0.186,1.347-0.456,1.896c-0.72,1.463-0.85,2.627,0.467,4.42  c-1.037,1.405-0.534,2.513,0.215,3.507c0.295,0.391,0.549,0.728,0.623,1.22c0.082,0.541-0.024,1.143-0.148,1.841  c-0.179,1.008-0.4,2.262-0.094,3.759c0.897,4.378,6.587,3.828,10.351,3.463c0.337-0.032,0.661-0.064,0.967-0.09  c4.145-0.36,4.999,0.239,5.711,4.004c0.828,4.374,0.376,5.844-0.719,9.395l-0.291,0.947c-0.006,0.02-0.007,0.041-0.012,0.061  c-0.012,0.046-0.021,0.092-0.027,0.139c-0.006,0.043-0.011,0.085-0.013,0.128c-0.002,0.044-0.001,0.087,0.001,0.132  c0.002,0.044,0.005,0.087,0.012,0.131c0.006,0.043,0.016,0.086,0.026,0.128c0.011,0.043,0.022,0.085,0.037,0.126  c0.014,0.041,0.031,0.08,0.05,0.12c0.02,0.042,0.041,0.083,0.065,0.124c0.011,0.018,0.018,0.038,0.03,0.056  c0.01,0.014,0.023,0.024,0.033,0.038c0.045,0.063,0.096,0.121,0.152,0.176c0.02,0.019,0.038,0.041,0.058,0.059  c0.075,0.065,0.157,0.123,0.247,0.171c0.023,0.012,0.047,0.019,0.07,0.029c0.057,0.026,0.113,0.054,0.175,0.073  c0.01,0.003,0.02,0.002,0.03,0.004c0.119,0.033,0.242,0.055,0.366,0.055c0.136,0,0.272-0.024,0.405-0.066  c0.046-0.015,0.086-0.042,0.131-0.061c0.072-0.031,0.145-0.055,0.213-0.1c8.389-5.569,19.371-8.928,32.641-9.985  c0.746-0.059,1.303-0.712,1.243-1.458c-0.011-0.133-0.046-0.257-0.091-0.376c-0.007-0.029-0.008-0.058-0.017-0.087  c-1.153-3.796-2.523-9.352-1.114-13.761c0.621-1.942,2.047-4.035,3.427-6.059c0.766-1.125,1.559-2.287,2.194-3.404  C85.017,41.331,85.901,21.267,68.576,11.052z M74.51,54.31c-0.582,1.022-1.309,2.089-2.079,3.219  c-1.488,2.184-3.028,4.443-3.769,6.76c-1.462,4.574-0.441,9.915,0.689,13.957c-11.478,1.093-21.282,3.915-29.217,8.412  c0.615-2.364,0.794-4.443,0.074-8.247c-0.979-5.173-3.071-6.679-8.608-6.2c-0.315,0.028-0.648,0.06-0.994,0.093  c-2.797,0.271-7.027,0.68-7.435-1.309c-0.203-0.99-0.052-1.841,0.108-2.742c0.152-0.855,0.308-1.739,0.159-2.721  c-0.178-1.169-0.756-1.936-1.139-2.444c-0.064-0.085-0.143-0.189-0.201-0.274c0.078-0.102,0.228-0.272,0.514-0.521  c0.274-0.239,0.44-0.577,0.462-0.94c0.022-0.363-0.103-0.719-0.346-0.988c-1.301-1.445-1.195-1.66-0.844-2.375  c0.4-0.813,1.005-2.042,0.614-4.182c-0.068-0.376-0.292-0.705-0.616-0.907c-0.608-0.379-1.36-0.727-2.087-1.064  c-0.558-0.258-1.128-0.522-1.561-0.769c-0.01-1.773,1.291-3.446,2.776-5.354c1.356-1.743,2.758-3.545,3.304-5.702  c0.625-2.468,0.303-3.358-0.22-4.347c-0.394-0.744-1.053-1.99,1.42-10.668c1.925-6.757,5.997-11.038,12.815-13.473  c7.572-2.706,21.292-2.606,28.872,1.864C83.03,22.72,82.277,40.665,74.51,54.31z M75.408,31.245l-1.246-1.246  c-0.254-0.254-0.599-0.397-0.958-0.397h-1.537c-0.344-1.301-0.858-2.541-1.535-3.705l1.088-1.088  c0.254-0.254,0.397-0.599,0.397-0.958V22.09c0-0.359-0.143-0.704-0.397-0.958l-1.833-1.833c-0.254-0.254-0.599-0.397-0.958-0.397  l-1.762,0c0,0,0,0,0,0c-0.359,0-0.704,0.143-0.958,0.397l-1.087,1.088c-1.165-0.678-2.404-1.192-3.704-1.536v-1.537  c0-0.359-0.143-0.704-0.397-0.958l-1.246-1.246c-0.254-0.254-0.599-0.397-0.958-0.397h-2.592c-0.359,0-0.704,0.143-0.958,0.397  l-1.246,1.246c-0.254,0.254-0.397,0.599-0.397,0.958v1.537c-1.301,0.344-2.541,0.858-3.704,1.535l-1.088-1.088  c-0.254-0.254-0.599-0.397-0.959-0.397l-1.762,0c-0.359,0-0.704,0.143-0.958,0.397l-1.833,1.833  c-0.254,0.254-0.397,0.599-0.397,0.958v1.762c0,0.359,0.143,0.704,0.397,0.958l1.088,1.088c-0.678,1.165-1.192,2.405-1.536,3.705  h-1.537c-0.359,0-0.704,0.143-0.958,0.397l-1.246,1.246c-0.254,0.254-0.397,0.599-0.397,0.958v2.592  c0,0.359,0.143,0.704,0.397,0.958l1.246,1.246c0.254,0.254,0.599,0.397,0.958,0.397h1.537c0.344,1.301,0.858,2.54,1.535,3.704  l-1.088,1.087c-0.254,0.254-0.397,0.599-0.397,0.959l0,1.762c0,0.359,0.143,0.704,0.397,0.958l1.833,1.833  c0.254,0.254,0.599,0.397,0.958,0.397h1.762c0.359,0,0.704-0.143,0.958-0.397l1.088-1.088c1.165,0.678,2.405,1.191,3.705,1.535  v1.537c0,0.359,0.143,0.704,0.397,0.958l1.246,1.246c0.254,0.254,0.599,0.397,0.958,0.397h2.592c0.359,0,0.704-0.143,0.958-0.397  l1.246-1.246c0.254-0.254,0.397-0.599,0.397-0.958v-1.537c1.301-0.344,2.54-0.858,3.704-1.535l1.088,1.088  c0.254,0.254,0.599,0.397,0.958,0.397h1.762c0.359,0,0.704-0.143,0.958-0.397l1.833-1.833c0.254-0.254,0.397-0.599,0.397-0.958  v-1.762c0-0.359-0.143-0.704-0.397-0.958l-1.088-1.087c0.678-1.165,1.191-2.404,1.535-3.704h1.537c0.359,0,0.704-0.143,0.958-0.397  l1.246-1.246c0.254-0.254,0.397-0.599,0.397-0.958v-2.592C75.805,31.844,75.663,31.5,75.408,31.245z M73.095,34.235l-0.453,0.453  h-2.059c-0.653,0-1.213,0.465-1.332,1.107c-0.318,1.706-0.978,3.298-1.962,4.734c-0.369,0.538-0.302,1.263,0.159,1.725l1.457,1.456  v0.64l-1.039,1.039h-0.639l-1.457-1.457c-0.461-0.46-1.186-0.528-1.725-0.159c-1.435,0.984-3.027,1.644-4.734,1.962  c-0.642,0.12-1.107,0.68-1.107,1.332v2.059l-0.453,0.453h-1.47l-0.452-0.452v-2.059c0-0.653-0.465-1.213-1.107-1.332  c-1.705-0.318-3.298-0.978-4.734-1.962c-0.538-0.368-1.262-0.301-1.724,0.16l-1.457,1.457h-0.639l-1.039-1.039v-0.64l1.456-1.456  c0.462-0.461,0.529-1.187,0.16-1.725c-0.984-1.434-1.644-3.027-1.962-4.734c-0.12-0.642-0.68-1.107-1.332-1.107h-2.059l-0.453-0.453  v-1.47l0.452-0.452h2.06c0.653,0,1.213-0.465,1.332-1.107c0.317-1.705,0.977-3.298,1.962-4.734c0.369-0.538,0.302-1.263-0.159-1.724  L45.13,23.29v-0.639l1.039-1.039h0.64l1.456,1.457c0.462,0.461,1.187,0.529,1.725,0.159c1.434-0.984,3.027-1.644,4.734-1.962  c0.642-0.12,1.107-0.68,1.107-1.332v-2.059l0.452-0.452h1.47l0.452,0.452v2.059c0,0.653,0.465,1.213,1.107,1.332  c1.705,0.317,3.298,0.977,4.734,1.962c0.538,0.37,1.263,0.303,1.725-0.16l1.456-1.456h0.64l1.039,1.039v0.639l-1.457,1.457  c-0.461,0.462-0.528,1.187-0.159,1.725c0.984,1.434,1.644,3.027,1.962,4.734c0.12,0.642,0.68,1.107,1.332,1.107h2.059l0.452,0.452  V34.235z M57.018,24.259c-5.095,0-9.241,4.146-9.241,9.241c0,5.096,4.146,9.241,9.241,9.241c5.096,0,9.241-4.146,9.241-9.241  C66.259,28.404,62.113,24.259,57.018,24.259z M57.018,40.031c-3.601,0-6.531-2.93-6.531-6.531c0-3.601,2.93-6.531,6.531-6.531  c3.601,0,6.531,2.93,6.531,6.531C63.549,37.101,60.619,40.031,57.018,40.031z"/></svg>