<?xml version="1.0" encoding="iso-8859-1"?>
<!-- Uploaded to: SVG Repo, www.svgrepo.com, Generator: SVG Repo Mixer Tools -->
<svg fill="#000000" height="30px" width="30px" version="1.1" id="Layer_1" xmlns="http://www.w3.org/2000/svg" xmlns:xlink="http://www.w3.org/1999/xlink" 
	 viewBox="0 0 330 330" xml:space="preserve">
<g id="XMLID_224_">
	<path id="XMLID_225_" d="M150,135V15c0-8.284-6.716-15-15-15C60.56,0,0,60.561,0,135c0,36.06,14.042,69.961,39.541,95.459
		c2.929,2.929,6.768,4.393,10.606,4.393c3.839,0,7.678-1.464,10.606-4.393l84.853-84.853C148.419,142.794,150,138.978,150,135z
		 M120,128.787l-69.106,69.105C37.333,179.836,30,157.982,30,135c0-52.805,39.183-96.631,90-103.932V128.787z"/>
	<path id="XMLID_228_" d="M175.606,184.394c-5.857-5.858-15.355-5.858-21.213,0l-84.853,84.852
		c-5.858,5.857-5.858,15.355-0.001,21.213C95.038,315.957,128.939,330,165,330c36.06,0,69.962-14.043,95.459-39.541
		c5.857-5.858,5.857-15.356,0-21.213L175.606,184.394z M165,300c-22.983,0-44.837-7.333-62.893-20.895L165,216.213l62.893,62.892
		C209.837,292.667,187.983,300,165,300z"/>
	<path id="XMLID_231_" d="M195,0c-8.284,0-15,6.716-15,15v120c0,3.978,1.581,7.794,4.394,10.606l84.852,84.853
		c2.929,2.929,6.768,4.393,10.606,4.393c3.839,0,7.678-1.464,10.607-4.393C315.957,204.961,330,171.06,330,135
		C330,60.561,269.439,0,195,0z M279.105,197.892L210,128.787V31.068c50.817,7.3,90,51.126,90,103.932
		C300,157.982,292.667,179.836,279.105,197.892z"/>
</g>
</svg>